<?xml version="1.0" encoding="UTF-8"?>
<!DOCTYPE svg PUBLIC "-//W3C//DTD SVG 1.1//EN" "http://www.w3.org/Graphics/SVG/1.1/DTD/svg11.dtd">
<svg xmlns="http://www.w3.org/2000/svg" version="1.1" width="352px" height="200px" style="shape-rendering:geometricPrecision; text-rendering:geometricPrecision; image-rendering:optimizeQuality; fill-rule:evenodd; clip-rule:evenodd" xmlns:xlink="http://www.w3.org/1999/xlink">
<g><path style="opacity:0.977" fill="#1c1c1c" d="M 265.5,23.5 C 265.427,25.0269 266.094,26.0269 267.5,26.5C 272.487,30.4843 277.487,34.4843 282.5,38.5C 282.5,40.5 283.5,41.5 285.5,41.5C 288.139,42.7058 288.972,44.7058 288,47.5C 278.804,58.0253 269.638,68.5253 260.5,79C 252.887,80.2616 245.22,80.7616 237.5,80.5C 234.813,80.6641 232.146,80.4974 229.5,80C 227.881,79.7645 226.881,78.9311 226.5,77.5C 227.693,77.0296 228.36,76.0296 228.5,74.5C 228.401,72.2014 227.734,70.2014 226.5,68.5C 224.701,61.9432 224.201,55.2765 225,48.5C 226.371,46.9586 227.871,45.6253 229.5,44.5C 230.906,44.0269 231.573,43.0269 231.5,41.5C 233.833,41.1667 235.167,39.8333 235.5,37.5C 241.22,30.9253 246.886,24.092 252.5,17C 254.167,16.3333 255.833,16.3333 257.5,17C 260.072,19.3499 262.739,21.5166 265.5,23.5 Z M 254.5,26.5 C 255.478,26.811 256.145,27.4777 256.5,28.5C 250.563,36.607 244.063,44.2736 237,51.5C 236.25,50.8742 235.416,50.3742 234.5,50C 241.002,42.0003 247.669,34.1669 254.5,26.5 Z M 250.5,50.5 C 249.094,50.9731 248.427,51.9731 248.5,53.5C 246.871,54.6253 245.371,55.9586 244,57.5C 242.396,56.9323 241.73,55.9323 242,54.5C 248.372,46.967 254.872,39.6337 261.5,32.5C 263.101,33.0347 263.601,34.0347 263,35.5C 258.622,40.3732 254.455,45.3732 250.5,50.5 Z M 267.5,38.5 C 269.686,38.5106 270.519,39.5106 270,41.5C 264.291,47.5404 258.957,53.8737 254,60.5C 252.56,63.3355 250.727,63.8355 248.5,62C 254.981,54.1577 261.314,46.3244 267.5,38.5 Z M 273.5,51.5 C 272.094,51.9731 271.427,52.9731 271.5,54.5C 269.833,55.5 268.5,56.8333 267.5,58.5C 266.094,58.9731 265.427,59.9731 265.5,61.5C 262.764,63.5543 260.431,66.0543 258.5,69C 256.333,69.5 255.5,68.6667 256,66.5C 262.167,59.3333 268.333,52.1667 274.5,45C 275.965,44.3987 276.965,44.8987 277.5,46.5C 276.143,48.1856 274.81,49.8523 273.5,51.5 Z"/></g>
<g><path style="opacity:0.647" fill="#505251" d="M 108.5,29.5 C 107.417,29.4606 106.417,29.1272 105.5,28.5C 104.614,29.325 104.281,30.325 104.5,31.5C 100.561,27.386 96.7275,23.0527 93,18.5C 92.5,16.3333 93.3333,15.5 95.5,16C 100.009,20.3423 104.342,24.8423 108.5,29.5 Z"/></g>
<g><path style="opacity:0.325" fill="#9b9b9b" d="M 265.5,23.5 C 266.906,23.9731 267.573,24.9731 267.5,26.5C 266.094,26.0269 265.427,25.0269 265.5,23.5 Z"/></g>
<g><path style="opacity:0.961" fill="#3a3a3a" d="M 108.5,29.5 C 114.5,34.8333 120.167,40.5 125.5,46.5C 124.07,46.5792 122.736,46.2458 121.5,45.5C 119.491,47.5569 118.157,49.8902 117.5,52.5C 117.66,50.8008 117.494,49.1341 117,47.5C 112.563,42.2486 108.397,36.9153 104.5,31.5C 104.281,30.325 104.614,29.325 105.5,28.5C 106.417,29.1272 107.417,29.4606 108.5,29.5 Z"/></g>
<g><path style="opacity:1" fill="#404140" d="M 114.5,55.5 C 111.401,56.9846 108.068,57.8179 104.5,58C 105.252,58.6708 105.586,59.5041 105.5,60.5C 96.8941,52.2793 88.3941,43.9459 80,35.5C 78.5986,33.8541 78.432,32.1875 79.5,30.5C 88.351,37.428 97.0177,44.5947 105.5,52C 108.072,54.2868 111.072,55.4535 114.5,55.5 Z"/></g>
<g><path style="opacity:0.314" fill="#8d8d8d" d="M 235.5,37.5 C 235.167,39.8333 233.833,41.1667 231.5,41.5C 232.5,39.8333 233.833,38.5 235.5,37.5 Z"/></g>
<g><path style="opacity:0.051" fill="#9f9f9f" d="M 282.5,38.5 C 283.833,39.1667 284.833,40.1667 285.5,41.5C 283.5,41.5 282.5,40.5 282.5,38.5 Z"/></g>
<g><path style="opacity:0.067" fill="#b6b6b6" d="M 231.5,41.5 C 231.573,43.0269 230.906,44.0269 229.5,44.5C 229.427,42.9731 230.094,41.9731 231.5,41.5 Z"/></g>
<g><path style="opacity:0.082" fill="#ffd0c5" d="M 161.5,47.5 C 161.5,48.5 161.5,49.5 161.5,50.5C 161.5,51.8333 160.833,52.5 159.5,52.5C 160.024,50.6943 160.691,49.0276 161.5,47.5 Z"/></g>
<g><path style="opacity:1" fill="#212020" d="M 125.5,46.5 C 126.974,47.4363 127.974,48.7697 128.5,50.5C 128.883,55.3426 128.217,60.0093 126.5,64.5C 122.223,65.6055 117.89,65.7722 113.5,65C 115.032,64.3005 116.032,63.1338 116.5,61.5C 115.738,61.0894 114.738,60.9227 113.5,61C 114.696,60.3457 114.696,59.8457 113.5,59.5C 112.261,61.0072 112.595,62.1739 114.5,63C 113.5,63.5 112.5,64 111.5,64.5C 110.735,63.3881 109.735,62.7214 108.5,62.5C 107.5,61.8333 106.5,61.1667 105.5,60.5C 105.586,59.5041 105.252,58.6708 104.5,58C 108.068,57.8179 111.401,56.9846 114.5,55.5C 115.167,54.1667 116.167,53.1667 117.5,52.5C 118.157,49.8902 119.491,47.5569 121.5,45.5C 122.736,46.2458 124.07,46.5792 125.5,46.5 Z"/></g>
<g><path style="opacity:1" fill="#de4b38" d="M 203.5,79.5 C 201.958,80.3007 200.292,80.634 198.5,80.5C 196.167,80.1667 194.833,78.8333 194.5,76.5C 188.355,75.5098 182.022,75.1765 175.5,75.5C 175.5,74.1667 175.5,72.8333 175.5,71.5C 173.5,71.5 171.5,71.5 169.5,71.5C 169.232,73.099 169.566,74.4324 170.5,75.5C 171.391,76.1098 172.391,76.4431 173.5,76.5C 174.5,76.5 175.5,76.5 176.5,76.5C 176.5,77.5 176.5,78.5 176.5,79.5C 174.08,79.7076 171.747,79.3742 169.5,78.5C 168.571,77.3112 168.238,75.9778 168.5,74.5C 166.5,74.5 164.5,74.5 162.5,74.5C 162.232,71.8806 162.565,69.3806 163.5,67C 167.311,67.0835 170.645,66.2501 173.5,64.5C 173.5,64.1667 173.5,63.8333 173.5,63.5C 168.36,62.5119 163.026,62.1786 157.5,62.5C 157.5,61.5 157.5,60.5 157.5,59.5C 161.371,59.815 165.038,59.4816 168.5,58.5C 169.043,58.44 169.376,58.1067 169.5,57.5C 165.893,56.5108 162.226,56.1774 158.5,56.5C 157.761,56.631 157.094,56.4643 156.5,56C 156.974,54.2714 157.974,53.1047 159.5,52.5C 160.833,52.5 161.5,51.8333 161.5,50.5C 171.24,48.5642 181.24,47.8975 191.5,48.5C 191.207,52.4367 191.54,56.27 192.5,60C 198.218,60.2109 203.885,60.7109 209.5,61.5C 210.492,65.7828 210.826,70.1161 210.5,74.5C 209.448,74.3505 208.448,74.5172 207.5,75C 206.643,77.0188 205.309,78.5188 203.5,79.5 Z M 173.5,76.5 C 172.391,76.4431 171.391,76.1098 170.5,75.5C 170.5,74.5 170.5,73.5 170.5,72.5C 171.833,72.5 173.167,72.5 174.5,72.5C 174.567,73.9587 174.234,75.2921 173.5,76.5 Z M 199.5,72.5 C 203.864,72.6648 204.364,73.9981 201,76.5C 198.988,75.4335 198.488,74.1002 199.5,72.5 Z"/></g>
<g><path style="opacity:0.486" fill="#8d8d8d" d="M 250.5,50.5 C 250.573,52.0269 249.906,53.0269 248.5,53.5C 248.427,51.9731 249.094,50.9731 250.5,50.5 Z"/></g>
<g><path style="opacity:0.302" fill="#a8a8a8" d="M 273.5,51.5 C 273.573,53.0269 272.906,54.0269 271.5,54.5C 271.427,52.9731 272.094,51.9731 273.5,51.5 Z"/></g>
<g><path style="opacity:0.973" fill="#de9285" d="M 198.5,48.5 C 197.5,48.5 196.5,48.5 195.5,48.5C 195.5,50.8333 195.5,53.1667 195.5,55.5C 197.924,55.8076 200.257,55.4742 202.5,54.5C 201.441,52.4664 200.441,50.4664 199.5,48.5C 208.295,55.5718 206.962,58.4051 195.5,57C 194.549,53.9433 194.216,50.7766 194.5,47.5C 196.099,47.2322 197.432,47.5655 198.5,48.5 Z"/></g>
<g><path style="opacity:1" fill="#db4f3d" d="M 198.5,48.5 C 198.833,48.5 199.167,48.5 199.5,48.5C 200.441,50.4664 201.441,52.4664 202.5,54.5C 200.257,55.4742 197.924,55.8076 195.5,55.5C 195.5,53.1667 195.5,50.8333 195.5,48.5C 196.5,48.5 197.5,48.5 198.5,48.5 Z"/></g>
<g><path style="opacity:0.051" fill="#fec0bc" d="M 158.5,56.5 C 162.226,56.1774 165.893,56.5108 169.5,57.5C 169.376,58.1067 169.043,58.44 168.5,58.5C 165.167,57.8333 161.833,57.1667 158.5,56.5 Z"/></g>
<g><path style="opacity:0.133" fill="#d18173" d="M 168.5,58.5 C 165.038,59.4816 161.371,59.815 157.5,59.5C 157.5,60.5 157.5,61.5 157.5,62.5C 163.026,62.1786 168.36,62.5119 173.5,63.5C 167.824,63.6661 162.157,63.4994 156.5,63C 155.167,61.6667 155.167,60.3333 156.5,59C 160.486,58.5012 164.486,58.3345 168.5,58.5 Z"/></g>
<g><path style="opacity:0.957" fill="#da7064" d="M 205.5,79.5 C 204.833,79.5 204.167,79.5 203.5,79.5C 205.309,78.5188 206.643,77.0188 207.5,75C 208.448,74.5172 209.448,74.3505 210.5,74.5C 210.826,70.1161 210.492,65.7828 209.5,61.5C 203.885,60.7109 198.218,60.2109 192.5,60C 191.54,56.27 191.207,52.4367 191.5,48.5C 181.24,47.8975 171.24,48.5642 161.5,50.5C 161.5,49.5 161.5,48.5 161.5,47.5C 171.757,46.3592 182.09,46.1925 192.5,47C 193.46,50.73 193.793,54.5633 193.5,58.5C 209.246,54.0844 215.413,59.7511 212,75.5C 209.388,76.2171 207.222,77.5504 205.5,79.5 Z"/></g>
<g><path style="opacity:0.224" fill="#9e9e9e" d="M 267.5,58.5 C 267.573,60.0269 266.906,61.0269 265.5,61.5C 265.427,59.9731 266.094,58.9731 267.5,58.5 Z"/></g>
<g><path style="opacity:1" fill="#da6e61" d="M 173.5,64.5 C 170.645,66.2501 167.311,67.0835 163.5,67C 162.565,69.3806 162.232,71.8806 162.5,74.5C 164.5,74.5 166.5,74.5 168.5,74.5C 168.238,75.9778 168.571,77.3112 169.5,78.5C 171.747,79.3742 174.08,79.7076 176.5,79.5C 174.881,81.2385 172.881,81.7385 170.5,81C 167.807,78.4352 164.807,76.6018 161.5,75.5C 161.5,73.5 161.5,71.5 161.5,69.5C 160.5,69.5 159.5,69.5 158.5,69.5C 155.04,68.7396 154.707,67.2396 157.5,65C 162.823,64.5006 168.156,64.334 173.5,64.5 Z"/></g>
<g><path style="opacity:0.078" fill="#ffd7d6" d="M 158.5,69.5 C 159.5,69.5 160.5,69.5 161.5,69.5C 161.5,71.5 161.5,73.5 161.5,75.5C 160.842,73.3609 159.842,71.3609 158.5,69.5 Z"/></g>
<g><path style="opacity:0.22" fill="#6b6b6b" d="M 226.5,68.5 C 227.734,70.2014 228.401,72.2014 228.5,74.5C 228.36,76.0296 227.693,77.0296 226.5,77.5C 227.372,74.5785 227.372,71.5785 226.5,68.5 Z"/></g>
<g><path style="opacity:0.11" fill="#db867b" d="M 194.5,76.5 C 189.489,76.3341 184.489,76.5007 179.5,77C 178.627,78.045 177.627,78.8783 176.5,79.5C 176.5,78.5 176.5,77.5 176.5,76.5C 175.5,76.5 174.5,76.5 173.5,76.5C 174.234,75.2921 174.567,73.9587 174.5,72.5C 173.167,72.5 171.833,72.5 170.5,72.5C 170.5,73.5 170.5,74.5 170.5,75.5C 169.566,74.4324 169.232,73.099 169.5,71.5C 171.5,71.5 173.5,71.5 175.5,71.5C 175.5,72.8333 175.5,74.1667 175.5,75.5C 182.022,75.1765 188.355,75.5098 194.5,76.5 Z"/></g>
<g><path style="opacity:0.763" fill="#2d2e2e" d="M 128.5,50.5 C 129.323,53.977 129.823,57.6437 130,61.5C 135.789,69.2905 142.289,76.4572 149.5,83C 173.167,83.6667 196.833,83.6667 220.5,83C 222.696,81.3007 224.696,79.4673 226.5,77.5C 226.881,78.9311 227.881,79.7645 229.5,80C 232.146,80.4974 234.813,80.6641 237.5,80.5C 234.5,81.0928 231.5,81.9261 228.5,83C 268.165,83.5 307.832,83.6667 347.5,83.5C 347.5,84.5 347.5,85.5 347.5,86.5C 236.332,86.1672 125.332,86.5005 14.5,87.5C 11.4041,88.0934 9.07077,87.0934 7.5,84.5C 51.8296,83.6667 96.1629,83.1667 140.5,83C 135.732,75.9064 129.399,70.5731 121.5,67C 118.167,66.6667 114.833,66.3333 111.5,66C 109.944,65.2798 108.944,64.1132 108.5,62.5C 109.735,62.7214 110.735,63.3881 111.5,64.5C 112.5,64 113.5,63.5 114.5,63C 112.595,62.1739 112.261,61.0072 113.5,59.5C 114.696,59.8457 114.696,60.3457 113.5,61C 114.738,60.9227 115.738,61.0894 116.5,61.5C 116.032,63.1338 115.032,64.3005 113.5,65C 117.89,65.7722 122.223,65.6055 126.5,64.5C 128.217,60.0093 128.883,55.3426 128.5,50.5 Z"/></g>
<g><path style="opacity:0.086" fill="#edc7b7" d="M 203.5,79.5 C 204.167,79.5 204.833,79.5 205.5,79.5C 203.345,81.534 201.012,81.8674 198.5,80.5C 200.292,80.634 201.958,80.3007 203.5,79.5 Z"/></g>
<g><path style="opacity:0.064" fill="#d0d0d0" d="M 347.5,83.5 C 348.434,84.5676 348.768,85.901 348.5,87.5C 237.167,87.5 125.833,87.5 14.5,87.5C 125.332,86.5005 236.332,86.1672 347.5,86.5C 347.5,85.5 347.5,84.5 347.5,83.5 Z"/></g>
<g><path style="opacity:0.271" fill="#7b7c7c" d="M 231.5,114.5 C 230.791,115.404 229.791,115.737 228.5,115.5C 228.5,116.5 228.5,117.5 228.5,118.5C 232.167,118.5 235.833,118.5 239.5,118.5C 239.5,117.5 239.5,116.5 239.5,115.5C 238.167,115.5 236.833,115.5 235.5,115.5C 235.5,110.833 235.5,106.167 235.5,101.5C 237.5,101.5 239.5,101.5 241.5,101.5C 242.258,106.752 242.925,106.585 243.5,101C 243.167,99.5 242.833,98 242.5,96.5C 241.817,96.8627 241.15,97.1961 240.5,97.5C 241.183,95.8235 242.517,95.1568 244.5,95.5C 244.5,99.1667 244.5,102.833 244.5,106.5C 243.167,106.5 241.833,106.5 240.5,106.5C 240.5,105.167 240.5,103.833 240.5,102.5C 239.167,102.5 237.833,102.5 236.5,102.5C 236.5,106.5 236.5,110.5 236.5,114.5C 237.833,114.5 239.167,114.5 240.5,114.5C 240.5,116.167 240.5,117.833 240.5,119.5C 236.167,119.5 231.833,119.5 227.5,119.5C 227.5,117.833 227.5,116.167 227.5,114.5C 228.833,114.5 230.167,114.5 231.5,114.5 Z"/></g>
<g><path style="opacity:0.286" fill="#7b7d7c" d="M 30.5,97.5 C 33.8333,97.5 37.1667,97.5 40.5,97.5C 40.9227,99.7812 40.256,101.448 38.5,102.5C 39.2341,101.292 39.5674,99.9587 39.5,98.5C 36.2869,98.81 33.2869,98.4767 30.5,97.5 Z"/></g>
<g><path style="opacity:0.284" fill="#858887" d="M 217.5,102.5 C 218.806,101.533 219.473,100.199 219.5,98.5C 216.833,98.5 214.167,98.5 211.5,98.5C 211.433,99.9587 211.766,101.292 212.5,102.5C 210.744,101.448 210.077,99.7812 210.5,97.5C 213.833,97.5 217.167,97.5 220.5,97.5C 220.5,99.1667 220.5,100.833 220.5,102.5C 219.5,102.5 218.5,102.5 217.5,102.5 Z"/></g>
<g><path style="opacity:0.262" fill="#808080" d="M 284.5,98.5 C 287.962,97.5184 291.629,97.185 295.5,97.5C 295.5,99.1667 295.5,100.833 295.5,102.5C 294.5,102.5 293.5,102.5 292.5,102.5C 293.806,101.533 294.473,100.199 294.5,98.5C 291.167,98.5 287.833,98.5 284.5,98.5 Z"/></g>
<g><path style="opacity:0.844" fill="#383838" d="M 30.5,97.5 C 33.2869,98.4767 36.2869,98.81 39.5,98.5C 39.5674,99.9587 39.2341,101.292 38.5,102.5C 39.5,103.833 40.5,105.167 41.5,106.5C 41.5,106.833 41.5,107.167 41.5,107.5C 40.5313,108.309 39.6979,109.309 39,110.5C 38.5017,113.817 38.335,117.15 38.5,120.5C 36.8008,120.66 35.1341,120.494 33.5,120C 30.6142,115.953 27.9476,111.786 25.5,107.5C 25.2172,106.711 24.7172,106.044 24,105.5C 23.1955,108.696 23.3622,111.696 24.5,114.5C 27.119,115.403 27.7856,117.069 26.5,119.5C 23.3371,119.609 20.1704,119.609 17,119.5C 17.2686,115.875 17.7686,112.209 18.5,108.5C 17.9365,104.783 17.2698,101.116 16.5,97.5C 18.8268,97.3354 20.9935,96.6687 23,95.5C 25.4908,96.2202 27.9908,96.8869 30.5,97.5 Z"/></g>
<g><path style="opacity:0.905" fill="#2d2e2e" d="M 93.5,101.5 C 91.5467,107.074 90.88,113.074 91.5,119.5C 90.0695,119.579 88.7362,119.246 87.5,118.5C 86.8586,116.704 85.8586,115.204 84.5,114C 85.0442,113.283 85.7109,112.783 86.5,112.5C 87.4816,109.038 87.815,105.371 87.5,101.5C 86.5,101.5 85.5,101.5 84.5,101.5C 84.5,100.5 84.5,99.5 84.5,98.5C 87.5,98.5 90.5,98.5 93.5,98.5C 93.5,99.5 93.5,100.5 93.5,101.5 Z"/></g>
<g><path style="opacity:0.99" fill="#2f3130" d="M 217.5,102.5 C 217.5,106.5 217.5,110.5 217.5,114.5C 218.806,115.467 219.473,116.801 219.5,118.5C 216.833,118.5 214.167,118.5 211.5,118.5C 211.5,117.5 211.5,116.5 211.5,115.5C 212.8,113.777 213.467,111.61 213.5,109C 213.496,106.639 213.163,104.473 212.5,102.5C 211.766,101.292 211.433,99.9587 211.5,98.5C 214.167,98.5 216.833,98.5 219.5,98.5C 219.473,100.199 218.806,101.533 217.5,102.5 Z"/></g>
<g><path style="opacity:0.951" fill="#3b3b3b" d="M 240.5,97.5 C 241.15,97.1961 241.817,96.8627 242.5,96.5C 242.833,98 243.167,99.5 243.5,101C 242.925,106.585 242.258,106.752 241.5,101.5C 239.5,101.5 237.5,101.5 235.5,101.5C 235.5,106.167 235.5,110.833 235.5,115.5C 236.833,115.5 238.167,115.5 239.5,115.5C 239.5,116.5 239.5,117.5 239.5,118.5C 235.833,118.5 232.167,118.5 228.5,118.5C 228.5,117.5 228.5,116.5 228.5,115.5C 229.791,115.737 230.791,115.404 231.5,114.5C 231.5,110.5 231.5,106.5 231.5,102.5C 230.432,101.566 229.099,101.232 227.5,101.5C 227.5,103.167 227.5,104.833 227.5,106.5C 226.5,106.5 225.5,106.5 224.5,106.5C 224.5,102.833 224.5,99.1667 224.5,95.5C 229.692,97.0307 235.026,97.6974 240.5,97.5 Z"/></g>
<g><path style="opacity:0.876" fill="#323232" d="M 263.5,96.5 C 264.5,96.5 265.5,96.5 266.5,96.5C 266.5,99.8333 266.5,103.167 266.5,106.5C 264.801,106.473 263.467,105.806 262.5,104.5C 261.662,104.158 261.328,103.492 261.5,102.5C 260.432,101.566 259.099,101.232 257.5,101.5C 257.351,100.448 257.517,99.448 258,98.5C 259.583,98.493 261.249,98.8263 263,99.5C 263.483,98.552 263.649,97.552 263.5,96.5 Z"/></g>
<g><path style="opacity:0.137" fill="#d0d1d1" d="M 111.5,97.5 C 112.919,96.5489 114.585,96.2155 116.5,96.5C 116.813,100.042 116.479,103.375 115.5,106.5C 115.5,103.5 115.5,100.5 115.5,97.5C 114.167,97.5 112.833,97.5 111.5,97.5 Z"/></g>
<g><path style="opacity:0.459" fill="#8b8b8b" d="M 61.5,98.5 C 63.5869,99.5846 64.9202,101.251 65.5,103.5C 63.0646,102.73 61.7313,101.063 61.5,98.5 Z"/></g>
<g><path style="opacity:0.817" fill="#313232" d="M 70.5,97.5 C 73.6981,96.9644 76.3647,97.631 78.5,99.5C 76.8164,104.676 76.1497,110.009 76.5,115.5C 77.8333,115.5 79.1667,115.5 80.5,115.5C 80.5,116.833 80.5,118.167 80.5,119.5C 77.1667,119.5 73.8333,119.5 70.5,119.5C 70.5,118.167 70.5,116.833 70.5,115.5C 71.5,115.5 72.5,115.5 73.5,115.5C 73.5,110.833 73.5,106.167 73.5,101.5C 72.5,101.5 71.5,101.5 70.5,101.5C 70.5,100.167 70.5,98.8333 70.5,97.5 Z"/></g>
<g><path style="opacity:0.954" fill="#575757" d="M 78.5,99.5 C 81.3229,102.475 83.6563,105.808 85.5,109.5C 86.1098,110.391 86.4431,111.391 86.5,112.5C 85.7109,112.783 85.0442,113.283 84.5,114C 85.8586,115.204 86.8586,116.704 87.5,118.5C 88.7362,119.246 90.0695,119.579 91.5,119.5C 90.0536,120.613 88.3869,120.78 86.5,120C 83.3043,115.786 80.4709,111.286 78,106.5C 77.5026,109.146 77.3359,111.813 77.5,114.5C 78.791,114.263 79.791,114.596 80.5,115.5C 79.1667,115.5 77.8333,115.5 76.5,115.5C 76.1497,110.009 76.8164,104.676 78.5,99.5 Z"/></g>
<g><path style="opacity:0.086" fill="#c8c9c9" d="M 206.5,97.5 C 207.451,98.9187 207.784,100.585 207.5,102.5C 206.167,102.5 204.833,102.5 203.5,102.5C 204.209,101.596 205.209,101.263 206.5,101.5C 206.5,100.167 206.5,98.8333 206.5,97.5 Z"/></g>
<g><path style="opacity:0.039" fill="#c6c7c6" d="M 70.5,97.5 C 70.5,98.8333 70.5,100.167 70.5,101.5C 71.5,101.5 72.5,101.5 73.5,101.5C 73.5,106.167 73.5,110.833 73.5,115.5C 72.5,115.5 71.5,115.5 70.5,115.5C 70.5,116.833 70.5,118.167 70.5,119.5C 69.5489,118.081 69.2155,116.415 69.5,114.5C 70.5,114.5 71.5,114.5 72.5,114.5C 72.5,110.5 72.5,106.5 72.5,102.5C 71.5,102.5 70.5,102.5 69.5,102.5C 69.2155,100.585 69.5489,98.9187 70.5,97.5 Z"/></g>
<g><path style="opacity:0.059" fill="#a4a4a4" d="M 93.5,101.5 C 93.5,100.5 93.5,99.5 93.5,98.5C 90.5,98.5 87.5,98.5 84.5,98.5C 84.5,99.5 84.5,100.5 84.5,101.5C 85.5,101.5 86.5,101.5 87.5,101.5C 87.815,105.371 87.4816,109.038 86.5,112.5C 86.4431,111.391 86.1098,110.391 85.5,109.5C 86.4682,107.393 86.8016,105.059 86.5,102.5C 85.5,102.5 84.5,102.5 83.5,102.5C 83.5,100.833 83.5,99.1667 83.5,97.5C 87.1667,97.5 90.8333,97.5 94.5,97.5C 94.7678,99.099 94.4345,100.432 93.5,101.5 Z"/></g>
<g><path style="opacity:0.012" fill="#fafafa" d="M 93.5,101.5 C 92.8716,107.601 92.2049,113.601 91.5,119.5C 90.88,113.074 91.5467,107.074 93.5,101.5 Z"/></g>
<g><path style="opacity:0.043" fill="#e7e7e7" d="M 194.5,97.5 C 195.139,98.0968 195.472,98.9302 195.5,100C 194.382,102.059 193.715,104.226 193.5,106.5C 193.167,106.5 192.833,106.5 192.5,106.5C 192.928,103.436 193.594,100.436 194.5,97.5 Z"/></g>
<g><path style="opacity:0.145" fill="#bebebe" d="M 231.5,102.5 C 230.5,102.5 229.5,102.5 228.5,102.5C 228.768,104.099 228.434,105.432 227.5,106.5C 227.5,104.833 227.5,103.167 227.5,101.5C 229.099,101.232 230.432,101.566 231.5,102.5 Z"/></g>
<g><path style="opacity:0.035" fill="#8f8f8f" d="M 335.5,98.5 C 338.962,97.5184 342.629,97.185 346.5,97.5C 346.5,99.1667 346.5,100.833 346.5,102.5C 345.5,102.5 344.5,102.5 343.5,102.5C 343.822,108.358 343.489,114.025 342.5,119.5C 342.5,113.5 342.5,107.5 342.5,101.5C 343.5,101.5 344.5,101.5 345.5,101.5C 345.5,100.5 345.5,99.5 345.5,98.5C 342.167,98.5 338.833,98.5 335.5,98.5 Z"/></g>
<g><path style="opacity:0.982" fill="#3a3b3a" d="M 279.5,102.5 C 279.5,103.833 279.5,105.167 279.5,106.5C 282.167,106.5 284.833,106.5 287.5,106.5C 288.451,105.081 288.784,103.415 288.5,101.5C 287.167,101.5 285.833,101.5 284.5,101.5C 284.5,100.5 284.5,99.5 284.5,98.5C 287.833,98.5 291.167,98.5 294.5,98.5C 294.473,100.199 293.806,101.533 292.5,102.5C 292.5,106.5 292.5,110.5 292.5,114.5C 293.806,115.467 294.473,116.801 294.5,118.5C 291.167,118.5 287.833,118.5 284.5,118.5C 284.5,117.5 284.5,116.5 284.5,115.5C 285.833,115.5 287.167,115.5 288.5,115.5C 288.784,113.585 288.451,111.919 287.5,110.5C 284.833,110.5 282.167,110.5 279.5,110.5C 279.5,111.833 279.5,113.167 279.5,114.5C 280.806,115.467 281.473,116.801 281.5,118.5C 278.5,118.5 275.5,118.5 272.5,118.5C 272.5,117.5 272.5,116.5 272.5,115.5C 273.5,115.5 274.5,115.5 275.5,115.5C 275.5,110.833 275.5,106.167 275.5,101.5C 274.5,101.5 273.5,101.5 272.5,101.5C 272.5,100.5 272.5,99.5 272.5,98.5C 275.5,98.5 278.5,98.5 281.5,98.5C 281.473,100.199 280.806,101.533 279.5,102.5 Z"/></g>
<g><path style="opacity:0.051" fill="#e1e2e1" d="M 284.5,101.5 C 285.833,101.5 287.167,101.5 288.5,101.5C 288.784,103.415 288.451,105.081 287.5,106.5C 287.5,105.167 287.5,103.833 287.5,102.5C 286.209,102.737 285.209,102.404 284.5,101.5 Z"/></g>
<g><path style="opacity:0.165" fill="#acacac" d="M 266.5,96.5 C 267.482,99.9619 267.815,103.629 267.5,107.5C 265.833,107.5 264.167,107.5 262.5,107.5C 262.5,106.5 262.5,105.5 262.5,104.5C 263.467,105.806 264.801,106.473 266.5,106.5C 266.5,103.167 266.5,99.8333 266.5,96.5 Z"/></g>
<g><path style="opacity:0.361" fill="#858685" d="M 329.5,98.5 C 327.167,98.5 324.833,98.5 322.5,98.5C 322.5,99.5 322.5,100.5 322.5,101.5C 323.5,101.5 324.5,101.5 325.5,101.5C 325.5,106.167 325.5,110.833 325.5,115.5C 324.5,115.5 323.5,115.5 322.5,115.5C 322.5,116.5 322.5,117.5 322.5,118.5C 325.5,118.5 328.5,118.5 331.5,118.5C 331.5,117.5 331.5,116.5 331.5,115.5C 330.209,115.737 329.209,115.404 328.5,114.5C 329.833,114.5 331.167,114.5 332.5,114.5C 332.5,116.167 332.5,117.833 332.5,119.5C 328.833,119.5 325.167,119.5 321.5,119.5C 321.5,117.833 321.5,116.167 321.5,114.5C 322.5,114.5 323.5,114.5 324.5,114.5C 324.5,110.5 324.5,106.5 324.5,102.5C 323.5,102.5 322.5,102.5 321.5,102.5C 321.5,100.833 321.5,99.1667 321.5,97.5C 324.385,97.1936 327.052,97.5269 329.5,98.5 Z"/></g>
<g><path style="opacity:0.996" fill="#474747" d="M 206.5,97.5 C 206.5,98.8333 206.5,100.167 206.5,101.5C 205.209,101.263 204.209,101.596 203.5,102.5C 199.308,107.27 199.975,111.27 205.5,114.5C 206.234,115.708 206.567,117.041 206.5,118.5C 203.167,118.5 199.833,118.5 196.5,118.5C 196.227,116.549 196.893,115.049 198.5,114C 197.115,112.351 195.449,111.184 193.5,110.5C 193.167,110.5 192.833,110.5 192.5,110.5C 192.918,109.778 193.584,109.278 194.5,109C 193.619,108.292 192.953,107.458 192.5,106.5C 192.833,106.5 193.167,106.5 193.5,106.5C 195.564,106.238 196.897,105.071 197.5,103C 196.594,101.301 196.261,99.4672 196.5,97.5C 199.833,97.5 203.167,97.5 206.5,97.5 Z"/></g>
<g><path style="opacity:0.027" fill="#f3f5f2" d="M 212.5,102.5 C 213.163,104.473 213.496,106.639 213.5,109C 213.467,111.61 212.8,113.777 211.5,115.5C 211.167,115.5 210.833,115.5 210.5,115.5C 212.334,111.486 213.001,107.153 212.5,102.5 Z"/></g>
<g><path style="opacity:0.934" fill="#545554" d="M 153.5,96.5 C 155.746,96.9361 157.913,97.6028 160,98.5C 161.312,96.3424 162.978,96.0091 165,97.5C 165.777,100.429 165.61,103.263 164.5,106C 163.833,106.167 163.167,106.333 162.5,106.5C 160.368,104.045 157.701,102.379 154.5,101.5C 152.096,102.008 151.429,103.175 152.5,105C 157.23,105.713 161.397,107.547 165,110.5C 166.129,116.716 163.462,120.05 157,120.5C 154.849,120.227 152.849,119.561 151,118.5C 149.933,120.283 148.433,120.783 146.5,120C 145.549,116.943 145.216,113.777 145.5,110.5C 148.607,110.174 150.94,111.341 152.5,114C 155.211,115.805 157.878,115.805 160.5,114C 155.927,111.692 151.427,109.192 147,106.5C 145.788,100.891 147.955,97.5579 153.5,96.5 Z"/></g>
<g><path style="opacity:0.012" fill="#b1b1b1" d="M 25.5,107.5 C 24.5318,109.607 24.1984,111.941 24.5,114.5C 23.3622,111.696 23.1955,108.696 24,105.5C 24.7172,106.044 25.2172,106.711 25.5,107.5 Z"/></g>
<g><path style="opacity:0.978" fill="#454645" d="M 111.5,97.5 C 112.833,97.5 114.167,97.5 115.5,97.5C 115.5,100.5 115.5,103.5 115.5,106.5C 112.288,105.17 109.121,103.504 106,101.5C 103.98,102.032 103.147,103.365 103.5,105.5C 107.833,105.915 111.833,107.248 115.5,109.5C 116.833,112.167 116.833,114.833 115.5,117.5C 114.672,118.415 113.672,119.081 112.5,119.5C 108.509,120.441 104.843,120.441 101.5,119.5C 100.5,119.5 99.5,119.5 98.5,119.5C 98.5,116.833 98.5,114.167 98.5,111.5C 100.322,111.831 101.989,112.498 103.5,113.5C 106.056,115.745 108.722,115.911 111.5,114C 107.746,111.629 103.746,109.629 99.5,108C 96.2866,101.595 98.2866,97.7619 105.5,96.5C 107.382,97.0933 109.215,97.7599 111,98.5C 111.399,98.2716 111.565,97.9382 111.5,97.5 Z"/></g>
<g><path style="opacity:0.012" fill="#aeaeae" d="M 185.5,101.5 C 186.5,101.5 187.5,101.5 188.5,101.5C 188.5,106.167 188.5,110.833 188.5,115.5C 187.5,115.5 186.5,115.5 185.5,115.5C 188.167,110.833 188.167,106.167 185.5,101.5 Z"/></g>
<g><path style="opacity:0.916" fill="#404141" d="M 329.5,98.5 C 332.362,102.371 335.195,106.371 338,110.5C 338.497,107.854 338.664,105.187 338.5,102.5C 334.965,102.663 333.965,101.33 335.5,98.5C 338.833,98.5 342.167,98.5 345.5,98.5C 345.5,99.5 345.5,100.5 345.5,101.5C 344.5,101.5 343.5,101.5 342.5,101.5C 342.5,107.5 342.5,113.5 342.5,119.5C 341.292,120.782 339.958,120.782 338.5,119.5C 334.716,115.223 331.55,110.556 329,105.5C 328.502,108.482 328.335,111.482 328.5,114.5C 329.209,115.404 330.209,115.737 331.5,115.5C 331.5,116.5 331.5,117.5 331.5,118.5C 328.5,118.5 325.5,118.5 322.5,118.5C 322.5,117.5 322.5,116.5 322.5,115.5C 323.5,115.5 324.5,115.5 325.5,115.5C 325.5,110.833 325.5,106.167 325.5,101.5C 324.5,101.5 323.5,101.5 322.5,101.5C 322.5,100.5 322.5,99.5 322.5,98.5C 324.833,98.5 327.167,98.5 329.5,98.5 Z"/></g>
<g><path style="opacity:0.412" fill="#808180" d="M 279.5,102.5 C 280.806,101.533 281.473,100.199 281.5,98.5C 278.5,98.5 275.5,98.5 272.5,98.5C 272.5,99.5 272.5,100.5 272.5,101.5C 273.5,101.5 274.5,101.5 275.5,101.5C 275.5,106.167 275.5,110.833 275.5,115.5C 274.5,115.5 273.5,115.5 272.5,115.5C 272.5,116.5 272.5,117.5 272.5,118.5C 275.5,118.5 278.5,118.5 281.5,118.5C 281.473,116.801 280.806,115.467 279.5,114.5C 280.5,114.5 281.5,114.5 282.5,114.5C 282.5,116.167 282.5,117.833 282.5,119.5C 278.833,119.5 275.167,119.5 271.5,119.5C 271.5,117.833 271.5,116.167 271.5,114.5C 272.5,114.5 273.5,114.5 274.5,114.5C 274.5,110.5 274.5,106.5 274.5,102.5C 273.5,102.5 272.5,102.5 271.5,102.5C 271.5,100.833 271.5,99.1667 271.5,97.5C 275.167,97.5 278.833,97.5 282.5,97.5C 282.5,99.1667 282.5,100.833 282.5,102.5C 281.5,102.5 280.5,102.5 279.5,102.5 Z"/></g>
<g><path style="opacity:0.173" fill="#b7b8b7" d="M 298.5,101.5 C 299.833,101.5 301.167,101.5 302.5,101.5C 302.5,106.167 302.5,110.833 302.5,115.5C 301.167,115.5 299.833,115.5 298.5,115.5C 299.209,114.596 300.209,114.263 301.5,114.5C 301.5,110.5 301.5,106.5 301.5,102.5C 300.209,102.737 299.209,102.404 298.5,101.5 Z"/></g>
<g><path style="opacity:0.843" fill="#3a3b3a" d="M 194.5,97.5 C 193.594,100.436 192.928,103.436 192.5,106.5C 192.953,107.458 193.619,108.292 194.5,109C 193.584,109.278 192.918,109.778 192.5,110.5C 192.077,112.781 192.744,114.448 194.5,115.5C 195.434,116.568 195.768,117.901 195.5,119.5C 192.15,119.665 188.817,119.498 185.5,119C 184.316,117.855 184.316,116.688 185.5,115.5C 186.5,115.5 187.5,115.5 188.5,115.5C 188.5,110.833 188.5,106.167 188.5,101.5C 187.5,101.5 186.5,101.5 185.5,101.5C 184.316,100.312 184.316,99.1455 185.5,98C 188.482,97.502 191.482,97.3354 194.5,97.5 Z"/></g>
<g><path style="opacity:0.043" fill="#e5e5e5" d="M 192.5,110.5 C 192.833,110.5 193.167,110.5 193.5,110.5C 193.366,112.292 193.699,113.958 194.5,115.5C 192.744,114.448 192.077,112.781 192.5,110.5 Z"/></g>
<g><path style="opacity:0.94" fill="#424242" d="M 313.5,106.5 C 313.5,104.833 313.5,103.167 313.5,101.5C 310.941,101.198 308.607,101.532 306.5,102.5C 306.124,103.982 306.124,105.315 306.5,106.5C 307.842,104.995 309.508,104.328 311.5,104.5C 311.5,107.5 311.5,110.5 311.5,113.5C 310.167,113.5 308.833,113.5 307.5,113.5C 307.719,112.325 307.386,111.325 306.5,110.5C 305.571,111.689 305.238,113.022 305.5,114.5C 308.167,114.5 310.833,114.5 313.5,114.5C 313.35,110.839 314.85,109.839 318,111.5C 318.784,114.76 318.617,117.927 317.5,121C 311.394,119.691 305.061,119.191 298.5,119.5C 298.5,118.167 298.5,116.833 298.5,115.5C 299.833,115.5 301.167,115.5 302.5,115.5C 302.5,110.833 302.5,106.167 302.5,101.5C 301.167,101.5 299.833,101.5 298.5,101.5C 298.5,100.167 298.5,98.8333 298.5,97.5C 304.64,97.7646 310.64,97.0979 316.5,95.5C 316.5,99.1667 316.5,102.833 316.5,106.5C 315.5,106.5 314.5,106.5 313.5,106.5 Z"/></g>
<g><path style="opacity:0.235" fill="#b9b9b9" d="M 306.5,102.5 C 308.607,101.532 310.941,101.198 313.5,101.5C 313.5,103.167 313.5,104.833 313.5,106.5C 312.566,105.432 312.232,104.099 312.5,102.5C 310.5,102.5 308.5,102.5 306.5,102.5 Z"/></g>
<g><path style="opacity:0.74" fill="#464747" d="M 61.5,98.5 C 61.7313,101.063 63.0646,102.73 65.5,103.5C 67.7751,110.176 66.1084,115.676 60.5,120C 51.8579,121.846 45.8579,118.679 42.5,110.5C 43.7768,109.078 43.4435,108.078 41.5,107.5C 41.5,107.167 41.5,106.833 41.5,106.5C 42.4959,106.586 43.3292,106.252 44,105.5C 47.5464,97.4252 53.3798,95.0918 61.5,98.5 Z M 50.5,102.5 C 60.9886,100.805 63.9886,104.638 59.5,114C 50.524,114.494 47.524,110.66 50.5,102.5 Z"/></g>
<g><path style="opacity:0.278" fill="#aaadac" d="M 103.5,113.5 C 101.989,112.498 100.322,111.831 98.5,111.5C 98.5,114.167 98.5,116.833 98.5,119.5C 99.5,119.5 100.5,119.5 101.5,119.5C 100.432,120.434 99.099,120.768 97.5,120.5C 97.5,117.167 97.5,113.833 97.5,110.5C 100.32,110.087 102.32,111.087 103.5,113.5 Z"/></g>
<g><path style="opacity:0.267" fill="#acafad" d="M 263.5,110.5 C 264.568,109.566 265.901,109.232 267.5,109.5C 267.5,113.167 267.5,116.833 267.5,120.5C 265.901,120.768 264.568,120.434 263.5,119.5C 264.5,119.5 265.5,119.5 266.5,119.5C 266.5,116.5 266.5,113.5 266.5,110.5C 265.5,110.5 264.5,110.5 263.5,110.5 Z"/></g>
<g><path style="opacity:0.067" fill="#d7dcda" d="M 287.5,110.5 C 288.451,111.919 288.784,113.585 288.5,115.5C 287.167,115.5 285.833,115.5 284.5,115.5C 285.209,114.596 286.209,114.263 287.5,114.5C 287.5,113.167 287.5,111.833 287.5,110.5 Z"/></g>
<g><path style="opacity:0.924" fill="#4a4b4b" d="M 129.5,96.5 C 141.956,98.4572 145.456,105.124 140,116.5C 134.805,121.391 129.305,121.725 123.5,117.5C 118.725,112.076 118.391,106.409 122.5,100.5C 124.525,98.4356 126.858,97.1023 129.5,96.5 Z M 127.5,102.5 C 136.676,101.158 139.676,104.658 136.5,113C 130.537,116.855 126.537,115.355 124.5,108.5C 124.984,106.199 125.984,104.199 127.5,102.5 Z"/></g>
<g><path style="opacity:0.98" fill="#494a4a" d="M 263.5,96.5 C 263.649,97.552 263.483,98.552 263,99.5C 261.249,98.8263 259.583,98.493 258,98.5C 257.517,99.448 257.351,100.448 257.5,101.5C 259.099,101.232 260.432,101.566 261.5,102.5C 254.754,101.623 251.754,104.623 252.5,111.5C 252.967,114.297 254.633,115.631 257.5,115.5C 260.779,115.211 262.779,113.544 263.5,110.5C 264.5,110.5 265.5,110.5 266.5,110.5C 266.5,113.5 266.5,116.5 266.5,119.5C 265.5,119.5 264.5,119.5 263.5,119.5C 254.151,122.425 248.817,118.758 247.5,108.5C 247.283,103.636 249.283,100.136 253.5,98C 256.919,97.7515 260.253,97.2515 263.5,96.5 Z"/></g>
<g><path style="opacity:0.188" fill="#c1c1c1" d="M 252.5,111.5 C 254.191,112.864 255.858,114.197 257.5,115.5C 254.633,115.631 252.967,114.297 252.5,111.5 Z"/></g>
<g><path style="opacity:0.559" fill="#777777" d="M 205.5,114.5 C 207.256,115.552 207.923,117.219 207.5,119.5C 203.629,119.815 199.962,119.482 196.5,118.5C 199.833,118.5 203.167,118.5 206.5,118.5C 206.567,117.041 206.234,115.708 205.5,114.5 Z"/></g>
<g><path style="opacity:0.599" fill="#797979" d="M 217.5,114.5 C 218.5,114.5 219.5,114.5 220.5,114.5C 220.5,116.167 220.5,117.833 220.5,119.5C 217.167,119.5 213.833,119.5 210.5,119.5C 210.5,118.167 210.5,116.833 210.5,115.5C 210.833,115.5 211.167,115.5 211.5,115.5C 211.5,116.5 211.5,117.5 211.5,118.5C 214.167,118.5 216.833,118.5 219.5,118.5C 219.473,116.801 218.806,115.467 217.5,114.5 Z"/></g>
<g><path style="opacity:0.596" fill="#787878" d="M 292.5,114.5 C 293.5,114.5 294.5,114.5 295.5,114.5C 295.5,116.167 295.5,117.833 295.5,119.5C 291.629,119.815 287.962,119.482 284.5,118.5C 287.833,118.5 291.167,118.5 294.5,118.5C 294.473,116.801 293.806,115.467 292.5,114.5 Z"/></g>
<g><path style="opacity:0.369" fill="#7d807e" d="M 181.5,118.5 C 182.404,119.209 182.737,120.209 182.5,121.5C 177.833,121.5 173.167,121.5 168.5,121.5C 168.5,120.167 168.5,118.833 168.5,117.5C 173.032,117.182 177.366,117.515 181.5,118.5 Z"/></g>
<g><path style="opacity:0.951" fill="#2c2e2d" d="M 181.5,118.5 C 179.952,119.794 177.952,120.461 175.5,120.5C 173.5,120.167 171.5,119.833 169.5,119.5C 173.445,118.509 177.445,118.176 181.5,118.5 Z"/></g>
<g><path style="opacity:0.881" fill="#484948" d="M 347.5,126.5 C 347.5,127.5 347.5,128.5 347.5,129.5C 345.585,129.216 343.919,129.549 342.5,130.5C 339.167,130.5 335.833,130.5 332.5,130.5C 286.335,129.335 240.002,129.168 193.5,130C 194.044,130.717 194.711,131.217 195.5,131.5C 198.297,133.795 200.964,136.295 203.5,139C 205.974,139.037 207.974,139.87 209.5,141.5C 208.213,142.768 207.213,142.435 206.5,140.5C 205.5,141.833 204.5,141.833 203.5,140.5C 201.448,142.796 200.448,145.463 200.5,148.5C 199.471,144.111 197.137,140.444 193.5,137.5C 193.5,135.5 192.5,134.5 190.5,134.5C 189.883,134.389 189.383,134.056 189,133.5C 184.104,137.537 180.271,142.204 177.5,147.5C 177.896,144.956 177.229,142.789 175.5,141C 176.712,139.893 176.379,139.393 174.5,139.5C 176.833,136.5 179.5,133.833 182.5,131.5C 183.289,131.217 183.956,130.717 184.5,130C 148.664,129.169 112.998,129.336 77.5,130.5C 54.8333,130.5 32.1667,130.5 9.5,130.5C 9.5,129.167 9.5,127.833 9.5,126.5C 28.5029,126.667 47.5029,126.5 66.5,126C 68.4139,124.173 70.4139,124.173 72.5,126C 164.315,126.476 255.981,126.643 347.5,126.5 Z"/></g>
<g><path style="opacity:0.153" fill="#cfcfcf" d="M 77.5,130.5 C 112.998,129.336 148.664,129.169 184.5,130C 183.956,130.717 183.289,131.217 182.5,131.5C 147.671,130.502 112.671,130.168 77.5,130.5 Z"/></g>
<g><path style="opacity:0.153" fill="#d0d0d0" d="M 332.5,130.5 C 286.664,130.168 240.997,130.501 195.5,131.5C 194.711,131.217 194.044,130.717 193.5,130C 240.002,129.168 286.335,129.335 332.5,130.5 Z"/></g>
<g><path style="opacity:0.153" fill="#cccecd" d="M 347.5,126.5 C 348.434,127.568 348.768,128.901 348.5,130.5C 346.5,130.5 344.5,130.5 342.5,130.5C 343.919,129.549 345.585,129.216 347.5,129.5C 347.5,128.5 347.5,127.5 347.5,126.5 Z"/></g>
<g><path style="opacity:0.361" fill="#a3a2a3" d="M 190.5,134.5 C 192.5,134.5 193.5,135.5 193.5,137.5C 192.167,136.833 191.167,135.833 190.5,134.5 Z"/></g>
<g><path style="opacity:1" fill="#282627" d="M 209.5,141.5 C 225.66,156.827 241.327,172.661 256.5,189C 254.641,194.764 250.975,196.431 245.5,194C 236.298,184.965 227.298,175.798 218.5,166.5C 217.833,163.833 216.167,162.167 213.5,161.5C 208.833,157.5 204.5,153.167 200.5,148.5C 200.448,145.463 201.448,142.796 203.5,140.5C 204.5,141.833 205.5,141.833 206.5,140.5C 207.213,142.435 208.213,142.768 209.5,141.5 Z"/></g>
<g><path style="opacity:0.963" fill="#565656" d="M 166.5,159.5 C 164.167,162.5 161.5,165.167 158.5,167.5C 158.119,166.069 157.119,165.236 155.5,165C 156.931,164.535 158.097,163.701 159,162.5C 159.333,163.167 159.667,163.833 160,164.5C 160.485,160.143 162.651,158.477 166.5,159.5 Z"/></g>
<g><path style="opacity:0.447" fill="#989696" d="M 213.5,161.5 C 216.167,162.167 217.833,163.833 218.5,166.5C 216.5,165.167 214.833,163.5 213.5,161.5 Z"/></g>
<g><path style="opacity:0.929" fill="#272627" d="M 174.5,139.5 C 176.379,139.393 176.712,139.893 175.5,141C 177.229,142.789 177.896,144.956 177.5,147.5C 174.297,151.888 170.631,155.888 166.5,159.5C 162.651,158.477 160.485,160.143 160,164.5C 159.667,163.833 159.333,163.167 159,162.5C 158.097,163.701 156.931,164.535 155.5,165C 157.119,165.236 158.119,166.069 158.5,167.5C 156.5,169.5 154.5,171.5 152.5,173.5C 151.25,173.423 150.417,172.756 150,171.5C 149.487,173.521 148.32,175.021 146.5,176C 147.252,176.671 147.586,177.504 147.5,178.5C 142.367,183.467 137.367,188.634 132.5,194C 125.229,196.619 122.062,194.119 123,186.5C 138.527,170.973 154.027,155.473 169.5,140C 171.134,139.506 172.801,139.34 174.5,139.5 Z"/></g>
<g><path style="opacity:0.937" fill="#5e5e5e" d="M 152.5,173.5 C 151.167,175.5 149.5,177.167 147.5,178.5C 147.586,177.504 147.252,176.671 146.5,176C 148.32,175.021 149.487,173.521 150,171.5C 150.417,172.756 151.25,173.423 152.5,173.5 Z"/></g>
</svg>
